<?xml version="1.0" encoding="UTF-8"?>
<svg version="1.1" xmlns="http://www.w3.org/2000/svg" width="28" height="32">
<path d="M0 0 C17.65517241 -0.82758621 17.65517241 -0.82758621 24.9375 5.75 C26.51754376 9.09597501 26.6383463 12.32318739 27 16 C27.33 16.33 27.66 16.66 28 17 C28.58169863 21.61544489 28.6241677 25.00133167 26.125 29 C23.15032053 31.79969832 21.62132607 32.12414217 17.6484375 32.09765625 C16.79765625 32.09443359 15.946875 32.09121094 15.0703125 32.08789062 C14.18085938 32.07951172 13.29140625 32.07113281 12.375 32.0625 C11.02921875 32.05573242 11.02921875 32.05573242 9.65625 32.04882812 C7.43743352 32.03702591 5.21874982 32.02056155 3 32 C3 28 3 28 4.3984375 26.2890625 C9.04376867 22.37817104 13.79982822 19.14587989 19.09375 16.1640625 C19.7228125 15.77992187 20.351875 15.39578125 21 15 C21 14.67 21 14.34 21 14 C20.19175781 13.99742188 19.38351563 13.99484375 18.55078125 13.9921875 C9.98415992 13.68217708 9.98415992 13.68217708 7.23046875 11.7734375 C6 10.25 6 10.25 4 7 C3.236875 6.0925 2.47375 5.185 1.6875 4.25 C-0 2 -0 2 0 0 Z " fill="#FFB628" transform="translate(0,0)"/>
<path d="M0 0 C16.1300813 -0.75609756 16.1300813 -0.75609756 23 4 C25.7427744 6.7427744 26.59515475 9.15397013 27 13 C26.67 13.66 26.34 14.32 26 15 C23.26494814 14.82510142 20.54233072 14.61160021 17.8125 14.375 C17.04357422 14.32988281 16.27464844 14.28476563 15.48242188 14.23828125 C11.31540419 13.84482894 8.84024402 13.38315154 6.09375 10.0859375 C5.4028125 9.06757813 4.711875 8.04921875 4 7 C3.236875 6.0925 2.47375 5.185 1.6875 4.25 C-0 2 -0 2 0 0 Z " fill="#536BF8" transform="translate(0,0)"/>
</svg>
